<?xml version="1.0" encoding="utf-8"?>
<!-- Generator: Adobe Illustrator 16.0.0, SVG Export Plug-In . SVG Version: 6.00 Build 0)  -->
<!DOCTYPE svg PUBLIC "-//W3C//DTD SVG 1.1//EN" "http://www.w3.org/Graphics/SVG/1.1/DTD/svg11.dtd">
<svg version="1.1" id="Layer_1" xmlns="http://www.w3.org/2000/svg" xmlns:xlink="http://www.w3.org/1999/xlink" x="0px" y="0px"
	 width="800px" height="235.883px" viewBox="-217.5 -199.559 800 235.883" enable-background="new -217.5 -199.559 800 235.883"
	 xml:space="preserve">
<g id="XMLID_1_">
	<path id="XMLID_25_" fill="#004892" d="M263.949-149.015c0-27.369,24.911-49.544,57.929-49.544
		c33.021,0,57.919,22.175,57.919,49.544c0,27.355-24.898,49.517-57.919,49.517C288.861-99.498,263.949-121.66,263.949-149.015
		 M303.109-150.499c0,14.843,9.413,26.863,18.765,26.863c9.339,0,18.771-12.021,18.771-26.863c0-14.836-9.433-26.859-18.771-26.859
		C312.524-177.358,303.109-165.335,303.109-150.499 M144.377-103.395v-91.134h66.442c24.384,0,44.075,20.393,44.075,45.569
		c0,25.163-19.745,45.569-44.119,45.569H144.38v-0.004H144.377z M184.784-125.123h10.531c11.956,0,21.65-11.221,21.65-25.306
		c0-14.113-9.639-25.55-21.595-25.55h-10.585v50.856H184.784z M20.639-103.395l31.758-91.134h57.739l30.114,91.134H97.769
		l-3.714-12.323H65.191l-5.378,12.323H20.639z M89.518-143.171L79.26-175.814l-9.95,32.644H89.518z M-92.785-103.395v-91.134h49.081
		l25.563,45.792v-45.792h33.826v91.134h-48.657l-25.576-45.342v45.342H-92.785z M-216.5-103.395l31.763-91.134h57.732l30.104,91.134
		h-42.477l-3.706-12.323h-28.864l-5.382,12.323H-216.5z M-147.621-141.684l-10.267-32.646l-9.955,32.646H-147.621z M579.5-194.529
		v61.626c0,22.021-24.125,32.637-53.839,32.637c-29.727,0-53.822-10.613-53.822-32.637v-61.626h40v57.197
		c0,8.131,6.181,14.738,13.822,14.738c7.613,0,13.837-6.607,13.837-14.738v-57.197H579.5z M-153.824-31.601
		c0,0-0.616-2.21-1.438-4.393c-0.829-2.21-3.919-4.186-8.862-4.186c-4.96,0-8.881,2.415-8.881,6.594
		c0,4.184,4.127,6.937,8.676,8.072c4.539,1.075,15.847,2.699,15.847,2.699c21.881,3.108,33.249,14.111,33.249,27.942
		c0,18.069-24.025,30.215-51.377,30.215c-27.324,0-49.479-13.66-49.479-31.709l41.747,0.277c0,0-0.192,1.48,0.424,4.779
		c0.611,3.317,4.225,6.012,10.216,6.012c5.967,0,9.882-2.046,9.882-7.767c0-5.73-15.447-8.586-15.447-8.586l-25.868-6.989
		c-12.893-5.522-21.363-12.746-21.363-23.183c0-16.903,22.166-30.593,49.478-30.593c27.348,0,49.501,13.699,49.501,30.593
		L-153.824-31.601z M-86.381-95.005l23.301,13.433l-23.301,14.097l-23.301-14.097L-86.381-95.005z M-106.792-60.217h38.767v91.581
		h-38.767V-60.217z M54.041,25.647C37.136,31.358,17.302,36.324-2.705,36.324c-33.025,0-57.924-23.16-57.924-50.528
		c0-27.369,24.898-49.531,57.924-49.531c26.43,0,52.636,17.178,55.089,33.903L14.48-29.897c-0.843-5.668-5.386-6.951-14.294-6.951
		c-9.336,0-18.782,10.004-18.782,24.847c0,14.833,9.496,25.368,18.835,25.368H14.87L15.036-0.76H-1.634v-20.25h55.675V25.647z
		 M287.883-31.601v-28.617h103.104v28.617h-31.338v62.964h-39.59v-62.964H287.883z M373.677,31.363l31.754-91.142h57.745
		l30.097,91.142h-42.479l-3.708-12.324h-28.879l-5.364,12.324H373.677z M442.543-6.926l-10.274-32.646l-9.937,32.646H442.543z
		 M59.381-14.204c0-27.364,24.911-49.531,57.928-49.531c33.032,0,57.93,22.167,57.93,49.531c0,27.359-24.898,49.537-57.93,49.537
		C84.292,35.333,59.381,13.155,59.381-14.204 M98.533-15.685c0,14.829,9.439,26.866,18.776,26.866
		c9.352,0,18.767-12.037,18.767-26.866c0-14.833-9.415-26.866-18.767-26.866C107.972-42.551,98.533-30.522,98.533-15.685
		 M275.124-6.663c4.937,3.092,7.827,17.624,7.827,17.624l4.118,18.938h-37.54c0,0-1.645-3.965-2.46-7.94
		c-0.828-3.965-4.134-19.37-9.063-22.441c-4.961-3.095-14.031-1.328-14.031-1.328v31.714h-40.008V-61.69h70.073
		c15.598,0,28.188,11.521,28.188,25.756c0,11.282-7.941,20.845-18.988,24.342C263.235-11.601,270.15-9.739,275.124-6.663
		 M223.969-20.15h15.572c5.354,0,9.69-4.386,9.69-10.336c0-5.971-4.287-10.805-9.624-10.805h-15.639V-20.15z M388.11-194.529h41.246
		v66.915h39.174v24.215h-80.42V-194.529z"/>
</g>
</svg>
