<svg xmlns="http://www.w3.org/2000/svg" xmlns:xlink="http://www.w3.org/1999/xlink" viewBox="0 0 1630.8 485.19"><defs><style>.cls-1{fill:#ed1c24;}.cls-2{fill:#231f20;}.cls-3{fill:url(#linear-gradient);}.cls-4{fill:url(#linear-gradient-2);}</style><linearGradient id="linear-gradient" x1="-4.1" y1="9.98" x2="292.57" y2="118.51" gradientUnits="userSpaceOnUse"><stop offset="0" stop-color="#70bf54"/><stop offset="0.17" stop-color="#00b3c9"/><stop offset="0.42" stop-color="#c71882"/><stop offset="0.5" stop-color="#cb187e"/><stop offset="0.6" stop-color="#d81670"/><stop offset="0.69" stop-color="#ed145b"/><stop offset="0.86" stop-color="#f58220"/><stop offset="1" stop-color="#fedf00"/></linearGradient><linearGradient id="linear-gradient-2" x1="6.86" y1="96.96" x2="303.52" y2="205.5" gradientUnits="userSpaceOnUse"><stop offset="0" stop-color="#70bf54"/><stop offset="0.17" stop-color="#00b3c9"/><stop offset="0.44" stop-color="#c71882"/><stop offset="0.74" stop-color="#ed145b"/><stop offset="0.84" stop-color="#f58220"/><stop offset="1" stop-color="#fedf00"/></linearGradient></defs><g id="katman_2" data-name="katman 2"><g id="Layer_1" data-name="Layer 1"><rect class="cls-1" x="17.02" y="316.01" width="1613.79" height="24.59"/><path class="cls-2" d="M57.63,484.46H47L17.35,398.07H31.54l20.77,62.85,20.78-62.85H87.53Zm42.69-86.39H114v86.39H100.32Zm37.62,86.39V398.07h57.65v11.77h-44v25.24h37.5v11.65h-37.5v26h44v11.77Zm132.13,0-41.68-60.79v60.79H214.71V398.07h12.54l41.68,60.67V398.07h13.68v86.39Zm91.84,0-41.68-60.79v60.79H306.55V398.07h12.54l41.68,60.67V398.07h13.69v86.39Zm88.29,0L444,467.12H408.4l-6.21,17.34H387.62l33.07-86.39h11l33.07,86.39ZM426.52,417.6,412.45,456H440.2Zm82.08-19.53h13.68v86.39H508.6Zm93,86.39-41.68-60.79v60.79H546.23V398.07h12.54l41.68,60.67V398.07h13.68v86.39Zm60.42.73c-13.55,0-23.31-3-31.92-11.41l9.12-8.61c6.58,6.31,13.81,8.25,23,8.25,11.79,0,18.63-4.85,18.63-13.22,0-3.77-1.14-6.92-3.55-9s-4.56-2.92-9.89-3.64l-10.63-1.46c-7.35-1-13.18-3.4-17.1-6.91-4.44-4-6.59-9.47-6.59-16.51,0-15,11.4-25.36,30.15-25.36,11.91,0,20.27,2.91,28,9.83l-8.73,8.26c-5.58-5.11-12-6.68-19.65-6.68-10.63,0-16.46,5.82-16.46,13.46a10.08,10.08,0,0,0,3.42,8c2.28,1.94,5.95,3.39,10.13,4l10.26,1.45c8.37,1.22,13,3.16,16.86,6.44,4.94,4.12,7.35,10.31,7.35,17.72,0,15.89-13.56,25.35-32.44,25.35m82,0c-18.37,0-32.3-12-32.3-29.85V398.07h13.68v56.66c0,11.53,7.35,18.69,18.62,18.69s18.75-7.16,18.75-18.69V398.07h13.69v57.27c0,17.84-14.07,29.85-32.44,29.85m104.76-.73-19-36.4h-17.1v36.4H799V398.07h35c17.1,0,28,10.56,28,25.24,0,12.37-7.85,20.27-18,22.93l20.78,38.22ZM832.9,409.84H812.63V436.9H832.9c9.12,0,15.33-5,15.33-13.47S842,409.84,832.9,409.84M934,484.46l-6.21-17.34H892.19L886,484.46H871.41l33.06-86.39h11l33.07,86.39ZM910.3,417.6,896.24,456H924ZM1017,484.46l-41.67-60.79v60.79H961.6V398.07h12.55l41.68,60.67V398.07h13.68v86.39Zm65.62.73a33.43,33.43,0,0,1-23.69-9.22c-8.87-8.49-8.74-18.08-8.74-34.7s-.13-26.21,8.74-34.7a33.44,33.44,0,0,1,23.69-9.23c11.28,0,18.5,3.89,25.21,10.19l-9.12,8.86c-4.69-4.49-8.61-7.28-16.09-7.28a18.46,18.46,0,0,0-13.3,5.22c-4.43,4.61-5.32,9.58-5.32,26.94s.89,22.32,5.32,26.93a18.42,18.42,0,0,0,13.3,5.22c7.48,0,11.4-2.79,16.09-7.28l9.12,8.86c-6.71,6.31-13.93,10.19-25.21,10.19m44-.73V398.07h57.64v11.77h-44v25.24h37.5v11.65h-37.5v26h44v11.77Zm161.14-9.22c-6.34,6.43-14.7,9.95-24.58,9.95a33.42,33.42,0,0,1-23.69-9.22c-8.87-8.49-8.74-18.08-8.74-34.7s-.13-26.21,8.74-34.7c6.2-5.95,14.06-9.23,23.69-9.23,12.29,0,19.13,3.64,27.24,11.41l-9.25,8.85c-5.7-5.45-9.88-8.49-18-8.49a18.86,18.86,0,0,0-13.43,5.34c-4.43,4.61-5.32,9.46-5.32,26.82s.89,22.32,5.32,26.93a18.73,18.73,0,0,0,13.43,5.22,18.94,18.94,0,0,0,14.44-6.07c3.3-3.51,4.43-8.37,4.43-13.7v-4.74H1263.1V437.75h32.56v13c0,11.16-2,18.44-8,24.51m77.65,9.22-19-36.4h-17.11v36.4h-13.68V398.07h35c17.1,0,28,10.56,28,25.24,0,12.37-7.86,20.27-18,22.93l20.79,38.22Zm-15.83-74.62h-20.28V436.9h20.28c9.12,0,15.33-5,15.33-13.47s-6.21-13.59-15.33-13.59M1451.85,476c-6.2,5.95-14.19,9.22-23.82,9.22s-17.48-3.27-23.69-9.22c-8.87-8.49-8.74-18.08-8.74-34.7s-.13-26.21,8.74-34.7a33,33,0,0,1,23.69-9.23c9.63,0,17.62,3.28,23.82,9.23,8.87,8.49,8.62,18.07,8.62,34.7s.25,26.21-8.62,34.7m-10.39-61.52a19.56,19.56,0,0,0-26.86,0c-4.43,4.61-5.31,9.46-5.31,26.82s.88,22.2,5.31,26.81a19.56,19.56,0,0,0,26.86,0c4.44-4.61,5.32-9.46,5.32-26.81s-.88-22.21-5.32-26.82m70.44,70.74c-18.37,0-32.31-12-32.31-29.85V398.07h13.68v56.66c0,11.53,7.35,18.69,18.63,18.69s18.75-7.16,18.75-18.69V398.07h13.68v57.27c0,17.84-14.07,29.85-32.43,29.85m89.18-34.7h-20.53v34h-13.68V398.07h34.21c17.6,0,28.88,11.16,28.88,26.21s-11.28,26.21-28.88,26.21m-.76-40.65h-19.77V438.6h19.77c9.5,0,16-5.22,16-14.32s-6.46-14.44-16-14.44"/><path class="cls-2" d="M484.85,67Q505.57,13,554,13L502.8,169q-22.62,51.94-70.62,51.94L381.56,65.85q-5.7-20.41,5.69-36.61T418.61,13l40.27,151.44Z"/><path class="cls-2" d="M573.72,19.31Q580.57,13,591.23,13t17.51,6.27q6.71,6.29,6.71,16.2T608.74,51.7Q602,58,591.23,58T573.72,51.7Q567,45.43,567,35.51T573.72,19.31Zm-4.08,202.07V119.83q0-19.11,12.84-32.6t30.92-13.5V175.27q0,19.11-12.83,32.61T569.64,221.38Z"/><path class="cls-2" d="M659.79,201.82Q639.23,182,639.22,150.33v-3.8q0-22.17,8.17-39.1a60.06,60.06,0,0,1,24.07-26.26q15.76-9.33,37.35-9.34,30.5,0,48.15,19a53.79,53.79,0,0,1,12.47,20.35q3.87,11.46,5.18,32.32A17.43,17.43,0,0,1,757.1,161H685q2.47,12.12,10.51,19.12t21.15,6.85q10.65,0,17.8-3.72a80.79,80.79,0,0,0,15.61-11.16l20.57,24.22q-8.31,11.67-23.78,18.53a81.17,81.17,0,0,1-33.27,6.85Q680.37,221.66,659.79,201.82Zm25.24-69h45.52v-3.51q.15-10.78-5.54-16.77t-16.49-6Q688.83,106.56,685,132.82Z"/><path class="cls-2" d="M837.19,92.26q14.44-19.83,40-19.84Q899,72.42,909.84,86q10.95,13.71,11.24,41.14V183.3a37.62,37.62,0,0,1-10.73,27.06,34.44,34.44,0,0,1-25.75,11.16h-7.29V129q0-11.09-4.23-16.19t-15.61-5.25q-12.84,0-19,10.5v64.63a38.26,38.26,0,0,1-10.87,27.43,35.07,35.07,0,0,1-26.33,11.38h-6.42V117.79a42.18,42.18,0,0,1,12-30.2q12-12.54,28.89-12.54Z"/><path class="cls-2" d="M987.45,92.26q14.44-19.83,40-19.84,21.88,0,32.68,13.57,11,13.71,11.24,41.14V183.3a37.62,37.62,0,0,1-10.73,27.06,34.43,34.43,0,0,1-25.75,11.16h-7.29V129q0-11.09-4.23-16.19t-15.61-5.25q-12.84,0-19,10.5v64.63a38.26,38.26,0,0,1-10.87,27.43,35,35,0,0,1-26.33,11.38h-6.42V117.79a42.23,42.23,0,0,1,12-30.2q12-12.54,28.89-12.54Z"/><path class="cls-2" d="M1181.92,206.21q-12.12,15.31-33.7,15.31-29.62,0-46-27.13-6.85-35.17,15.17-50.77,16.92-11.82,49-11.82h13.42v-7.59q0-19.69-16.63-19.7-15.62,0-15.61,15.61H1104q0-20.72,17.36-33.55,17.22-13,44.06-13t42.31,13.28q15.62,13.42,15.9,36.62v63.17q.3,19.69,6,30v2.2l-19.25.29Q1191.7,217.74,1181.92,206.21Zm-9.63-19.85a21.75,21.75,0,0,0,7.58-8V155.58h-12.69q-22.76,0-22.76,20.72a12.9,12.9,0,0,0,4.09,9.92,14.42,14.42,0,0,0,10.21,3.64Q1166.9,189.86,1172.29,186.36Z"/><path class="cls-2" d="M1290.16,221.52a34.36,34.36,0,0,1-25.82-11.16,37.36,37.36,0,0,1-10.65-26.77V14.06h2.62a38.76,38.76,0,0,1,29.11,12.62,42.51,42.51,0,0,1,12,30.42V221.52Z"/><path class="cls-2" d="M1328.23,19.31q6.86-6.27,17.51-6.27t17.5,6.27q6.71,6.29,6.71,16.2t-6.71,16.19q-6.71,6.27-17.5,6.28t-17.51-6.28q-6.72-6.27-6.71-16.19T1328.23,19.31Zm-4.09,202.07V119.83q0-19.11,12.84-32.6t30.93-13.5V175.27q0,19.11-12.84,32.61T1324.14,221.38Z"/><path class="cls-2" d="M1414.44,107.58H1394V76.07h20.42V64.39q0-24.95,14.15-38.66T1468.13,12a84.6,84.6,0,0,1,20.42,2.78l.15,33.41A38.8,38.8,0,0,0,1478.05,47q-19.85,0-19.84,17.8V76.07h27.28v31.51h-27.28V176.3a44.91,44.91,0,0,1-12.84,32.31Q1432.53,222,1414.44,222Z"/><path class="cls-2" d="M1515.12,201.82q-20.58-19.83-20.58-51.49v-3.8q0-22.17,8.18-39.1a60,60,0,0,1,24.07-26.26q15.75-9.33,37.35-9.34,30.48,0,48.14,19a53.69,53.69,0,0,1,12.48,20.35q3.85,11.46,5.18,32.32a17.43,17.43,0,0,1-17.51,17.5h-72.07q2.48,12.12,10.5,19.12,8.17,6.85,21.15,6.85,10.65,0,17.8-3.72a80.82,80.82,0,0,0,15.62-11.16L1626,196.28q-8.32,11.67-23.79,18.53a81.12,81.12,0,0,1-33.26,6.85Q1535.7,221.66,1515.12,201.82Zm25.24-69h45.51v-3.51q.15-10.78-5.54-16.77t-16.49-6Q1544.15,106.56,1540.36,132.82Z"/><path class="cls-3" d="M335.52,47.61c0,1.7,0,3.4-.08,5.09,0,.3,0,.58,0,.89,0,1.43-.1,2.85-.19,4.29,0,.25,0,.49,0,.74-.06,1.13-.13,2.27-.23,3.39-.09,1.32-.21,2.63-.34,3.93-.19,2.16-.43,4.28-.72,6.4-.13,1.1-.28,2.17-.45,3.25-.19,1.31-.4,2.59-.63,3.9-.51,3-1.09,6-1.74,8.93-.22,1-.43,2-.68,3-.93,3.9-2,7.78-3.14,11.6-.28,1-.59,1.9-.89,2.84q-1.44,4.45-3.1,8.82c-.31.8-.61,1.61-.93,2.38-.36.93-.74,1.86-1.12,2.77s-.75,1.81-1.15,2.72-.78,1.8-1.19,2.71-.82,1.8-1.23,2.69-.84,1.76-1.27,2.64-.81,1.65-1.23,2.48c-.21.42-.44.84-.66,1.27-.4.8-.82,1.59-1.23,2.37-1.23,2.31-2.52,4.58-3.86,6.83-.49.85-1,1.68-1.52,2.51A188.63,188.63,0,0,1,281,180.44c-1.21,1.23-2.46,2.45-3.73,3.66-.64.62-1.29,1.23-2,1.85q-3.15,2.93-6.47,5.73c-.72.61-1.44,1.22-2.18,1.82s-1.53,1.27-2.31,1.89L262.19,197c-3.72,2.9-7.58,5.66-11.54,8.27-.79.53-1.59,1-2.38,1.55-1.61,1-3.22,2-4.85,3-1,.59-1.93,1.15-2.89,1.7-.68.4-1.36.78-2.05,1.16s-1.66.93-2.51,1.38l-2.52,1.32c-2.54,1.33-5.11,2.6-7.72,3.79-1.65.76-3.31,1.49-5,2.21-3.84-1.64-7.6-3.4-11.31-5.3A188.78,188.78,0,0,1,181.9,199c-1.17-.87-2.3-1.76-3.46-2.69a6.19,6.19,0,0,0,6.93,0,4.17,4.17,0,0,0,.47-.36c1.25-1,2.5-2,3.71-3,.7-.55,1.38-1.13,2.06-1.72.95-.79,1.88-1.61,2.8-2.44,2.86-2.52,5.62-5.13,8.31-7.83,1.7-1.71,3.37-3.43,5-5.21s3.34-3.69,4.95-5.58c.57-.66,1.12-1.31,1.67-2,.41-.49.81-1,1.23-1.49.79-1,1.57-2,2.33-2.94,1.72-2.21,3.4-4.44,5-6.73.64-.89,1.27-1.78,1.87-2.69.74-1.06,1.46-2.14,2.18-3.22,0,0,0,0,0,0,.72-1.08,1.4-2.16,2.08-3.28s1.38-2.21,2-3.33,1.2-2,1.74-3l.51-.87c.55-1,1.1-2,1.63-3,.65-1.16,1.25-2.31,1.84-3.47.47-.87.91-1.74,1.34-2.63q1.14-2.26,2.22-4.59c.47-1,.92-2,1.36-3.05q2.49-5.59,4.6-11.35c.47-1.23.9-2.48,1.32-3.73s.91-2.71,1.34-4.07c.78-2.42,1.5-4.86,2.18-7.34v0a6.45,6.45,0,0,0-8.44-7.74A190.5,190.5,0,0,0,224,97.85a32.31,32.31,0,0,1-41.88-11.57l-.23-.36a189.86,189.86,0,0,1,73.8-66.85A187.62,187.62,0,0,1,318,.09a12.52,12.52,0,0,1,13.79,10A188.92,188.92,0,0,1,335.52,47.61Z"/><path class="cls-4" d="M216.27,248.8c-1.53.66-3.08,1.3-4.63,1.91-.9.37-1.79.71-2.7,1a105.6,105.6,0,0,1-72.64,0c-.91-.34-1.81-.68-2.7-1-1.55-.61-3.11-1.25-4.64-1.91-1.87-.81-3.74-1.64-5.59-2.49A212.41,212.41,0,0,1,3,89.32c-.68-3.91-1.23-7.86-1.68-11.86A214.13,214.13,0,0,1,4.21,11.29,14.09,14.09,0,0,1,19.71.1a210.7,210.7,0,0,1,70,21.33,213.25,213.25,0,0,1,82.93,75.12c-.09.13-.17.28-.26.41a36.29,36.29,0,0,1-47.05,13,214.51,214.51,0,0,0-21.08-9.14,7.25,7.25,0,0,0-9.48,8.71A212.21,212.21,0,0,0,168.2,220.2a4.09,4.09,0,0,0,.53.4c1.29,1.05,2.57,2.05,3.89,3a211.61,211.61,0,0,0,30.94,19.23Q209.8,246,216.27,248.8Z"/></g></g></svg>